# xmcd
#
# Track frame offsets: 
#        150
#        14404
#        27710
#        43166
#        57131
#        77417
#        92060
#        106851
#        123567
#        140726
#        158644
#        193165
#
# Disc length: 2666 seconds
#
# Revision: 5
# Processed by: cddbd v1.5.2PL0 Copyright (c) Steve Scherf et al.
# Submitted via: ExactAudioCopy v1.0b3
#
DISCID=a00a680c
DTITLE=Justin Currie - What Is Love For
DYEAR=2008
DGENRE=Alternative
TTITLE0=What Is Love For?
TTITLE1=Not So Sentimental Now
TTITLE2=Walking Through You
TTITLE3=Something In That Mess
TTITLE4=If I Ever Loved You
TTITLE5=Only Love
TTITLE6=Gold Dust
TTITLE7=Out Of My Control
TTITLE8=Where Did I Go?
TTITLE9=Still In Love
TTITLE10=No, Surrender
TTITLE11=(Bonus Track)
EXTD=Lead singer of Del Amitri - solo album
EXTT0=
EXTT1=
EXTT2=
EXTT3=
EXTT4=
EXTT5=
EXTT6=
EXTT7=
EXTT8=
EXTT9=
EXTT10=
EXTT11=No mention on sleeve of this track
PLAYORDER=
